<svg xmlns="http://www.w3.org/2000/svg" viewBox="0 0 800 240">
<rect width="800" height="240" fill="#1E1E1E"/>
<g transform="translate(64 35) scale(0.15018)">
<g fill="none" stroke="#F9F9F9" stroke-width="48" stroke-linejoin="round" stroke-linecap="round">
<polygon points="305,245 678,194 679,980 305,922"/>
<polygon points="305,245 554,312 553,798 305,921"/>
</g>
<polygon points="634,632 600,674 600,712 634,670" fill="#F9F9F9" stroke="#F9F9F9" stroke-width="10" stroke-linejoin="round"/>
</g>
<path transform="translate(223 148)" fill="#F9F9F9" d="M 31.47 1.12 Q 23.63 1.12 17.25 -2.63 Q 10.86 -6.38 7.11 -12.77 Q 3.36 -19.15 3.36 -26.99 Q 3.36 -34.83 7.11 -41.10 Q 10.86 -47.38 17.25 -51.13 Q 23.63 -54.88 31.47 -54.88 Q 39.42 -54.88 45.81 -51.18 Q 52.19 -47.49 55.94 -41.16 Q 59.70 -34.83 59.70 -26.99 Q 59.70 -19.15 55.94 -12.77 Q 52.19 -6.38 45.81 -2.63 Q 39.42 1.12 31.47 1.12 Z M 31.47 -10.75 Q 36.06 -10.75 39.59 -12.82 Q 43.12 -14.90 45.08 -18.59 Q 47.04 -22.29 47.04 -26.99 Q 47.04 -31.70 45.02 -35.28 Q 43.01 -38.86 39.54 -40.94 Q 36.06 -43.01 31.47 -43.01 Q 26.99 -43.01 23.46 -40.94 Q 19.94 -38.86 17.98 -35.28 Q 16.02 -31.70 16.02 -26.99 Q 16.02 -22.29 17.98 -18.59 Q 19.94 -14.90 23.46 -12.82 Q 26.99 -10.75 31.47 -10.75 Z M 98.67 1.12 Q 92.51 1.12 87.70 -1.51 Q 82.88 -4.14 80.14 -8.74 Q 77.39 -13.33 77.39 -19.15 V -34.61 Q 77.39 -40.43 80.19 -45.02 Q 82.99 -49.62 87.81 -52.25 Q 92.62 -54.88 98.67 -54.88 Q 105.95 -54.88 111.83 -51.13 Q 117.71 -47.38 121.13 -41.05 Q 124.54 -34.72 124.54 -26.77 Q 124.54 -18.93 121.13 -12.60 Q 117.71 -6.27 111.83 -2.58 Q 105.95 1.12 98.67 1.12 Z M 69.89 22.40 V -53.76 H 82.21 V -39.31 L 80.08 -26.21 L 82.21 -13.22 V 22.40 Z M 96.66 -10.53 Q 101.14 -10.53 104.55 -12.60 Q 107.97 -14.67 109.93 -18.37 Q 111.89 -22.06 111.89 -26.88 Q 111.89 -31.70 109.93 -35.39 Q 107.97 -39.09 104.55 -41.16 Q 101.14 -43.23 96.66 -43.23 Q 92.18 -43.23 88.70 -41.16 Q 85.23 -39.09 83.33 -35.39 Q 81.42 -31.70 81.42 -26.88 Q 81.42 -22.06 83.33 -18.37 Q 85.23 -14.67 88.70 -12.60 Q 92.18 -10.53 96.66 -10.53 Z M 159.82 1.12 Q 151.76 1.12 145.32 -2.52 Q 138.88 -6.16 135.13 -12.54 Q 131.38 -18.93 131.38 -26.88 Q 131.38 -34.83 135.07 -41.16 Q 138.77 -47.49 145.10 -51.18 Q 151.42 -54.88 159.15 -54.88 Q 166.66 -54.88 172.42 -51.41 Q 178.19 -47.94 181.50 -41.89 Q 184.80 -35.84 184.80 -28.11 Q 184.80 -26.77 184.63 -25.37 Q 184.46 -23.97 184.13 -22.29 H 140.00 V -32.37 H 177.74 L 173.15 -28.34 Q 172.93 -33.26 171.25 -36.62 Q 169.57 -39.98 166.49 -41.78 Q 163.41 -43.57 158.93 -43.57 Q 154.22 -43.57 150.75 -41.55 Q 147.28 -39.54 145.38 -35.90 Q 143.47 -32.26 143.47 -27.22 Q 143.47 -22.18 145.49 -18.37 Q 147.50 -14.56 151.20 -12.49 Q 154.90 -10.42 159.71 -10.42 Q 163.86 -10.42 167.38 -11.87 Q 170.91 -13.33 173.38 -16.13 L 181.22 -8.18 Q 177.30 -3.58 171.70 -1.23 Q 166.10 1.12 159.82 1.12 Z M 231.50 0.00 V -31.02 Q 231.50 -36.40 228.09 -39.87 Q 224.67 -43.34 219.30 -43.34 Q 215.71 -43.34 212.91 -41.78 Q 210.11 -40.21 208.54 -37.41 Q 206.98 -34.61 206.98 -31.02 L 202.16 -33.71 Q 202.16 -39.87 204.85 -44.63 Q 207.54 -49.39 212.30 -52.14 Q 217.06 -54.88 222.99 -54.88 Q 229.04 -54.88 233.74 -51.80 Q 238.45 -48.72 241.14 -43.85 Q 243.82 -38.98 243.82 -33.71 V 0.00 Z M 194.66 0.00 V -53.76 H 206.98 V 0.00 Z M 256.37 0.00 V -53.76 H 268.69 V 0.00 Z M 268.69 -29.90 264.43 -32.03 Q 264.43 -42.22 268.97 -48.55 Q 273.50 -54.88 282.69 -54.88 Q 286.72 -54.88 289.97 -53.42 Q 293.22 -51.97 296.02 -48.72 L 287.95 -40.43 Q 286.50 -42.00 284.70 -42.67 Q 282.91 -43.34 280.56 -43.34 Q 275.41 -43.34 272.05 -40.10 Q 268.69 -36.85 268.69 -29.90 Z M 328.61 1.12 Q 320.77 1.12 314.38 -2.63 Q 308.00 -6.38 304.25 -12.77 Q 300.50 -19.15 300.50 -26.99 Q 300.50 -34.83 304.25 -41.10 Q 308.00 -47.38 314.38 -51.13 Q 320.77 -54.88 328.61 -54.88 Q 336.56 -54.88 342.94 -51.18 Q 349.33 -47.49 353.08 -41.16 Q 356.83 -34.83 356.83 -26.99 Q 356.83 -19.15 353.08 -12.77 Q 349.33 -6.38 342.94 -2.63 Q 336.56 1.12 328.61 1.12 Z M 328.61 -10.75 Q 333.20 -10.75 336.73 -12.82 Q 340.26 -14.90 342.22 -18.59 Q 344.18 -22.29 344.18 -26.99 Q 344.18 -31.70 342.16 -35.28 Q 340.14 -38.86 336.67 -40.94 Q 333.20 -43.01 328.61 -43.01 Q 324.13 -43.01 320.60 -40.94 Q 317.07 -38.86 315.11 -35.28 Q 313.15 -31.70 313.15 -26.99 Q 313.15 -22.29 315.11 -18.59 Q 317.07 -14.90 320.60 -12.82 Q 324.13 -10.75 328.61 -10.75 Z M 391.66 1.12 Q 383.82 1.12 377.44 -2.63 Q 371.06 -6.38 367.30 -12.77 Q 363.55 -19.15 363.55 -26.99 Q 363.55 -34.83 367.30 -41.10 Q 371.06 -47.38 377.44 -51.13 Q 383.82 -54.88 391.66 -54.88 Q 399.62 -54.88 406.00 -51.18 Q 412.38 -47.49 416.14 -41.16 Q 419.89 -34.83 419.89 -26.99 Q 419.89 -19.15 416.14 -12.77 Q 412.38 -6.38 406.00 -2.63 Q 399.62 1.12 391.66 1.12 Z M 391.66 -10.75 Q 396.26 -10.75 399.78 -12.82 Q 403.31 -14.90 405.27 -18.59 Q 407.23 -22.29 407.23 -26.99 Q 407.23 -31.70 405.22 -35.28 Q 403.20 -38.86 399.73 -40.94 Q 396.26 -43.01 391.66 -43.01 Q 387.18 -43.01 383.66 -40.94 Q 380.13 -38.86 378.17 -35.28 Q 376.21 -31.70 376.21 -26.99 Q 376.21 -22.29 378.17 -18.59 Q 380.13 -14.90 383.66 -12.82 Q 387.18 -10.75 391.66 -10.75 Z M 430.08 0.00 V -53.76 H 442.40 V 0.00 Z M 465.81 0.00 V -32.03 Q 465.81 -37.41 462.45 -40.38 Q 459.09 -43.34 454.16 -43.34 Q 450.80 -43.34 448.17 -42.00 Q 445.54 -40.66 443.97 -38.14 Q 442.40 -35.62 442.40 -32.03 L 437.58 -34.72 Q 437.58 -40.88 440.27 -45.36 Q 442.96 -49.84 447.55 -52.36 Q 452.14 -54.88 457.86 -54.88 Q 463.57 -54.88 468.16 -52.42 Q 472.75 -49.95 475.44 -45.47 Q 478.13 -40.99 478.13 -34.72 V 0.00 Z M 501.54 0.00 V -32.03 Q 501.54 -37.41 498.18 -40.38 Q 494.82 -43.34 489.89 -43.34 Q 486.64 -43.34 483.95 -42.00 Q 481.26 -40.66 479.70 -38.14 Q 478.13 -35.62 478.13 -32.03 L 471.18 -34.72 Q 471.74 -40.88 474.77 -45.36 Q 477.79 -49.84 482.55 -52.36 Q 487.31 -54.88 493.02 -54.88 Q 498.85 -54.88 503.55 -52.42 Q 508.26 -49.95 511.06 -45.47 Q 513.86 -40.99 513.86 -34.72 V 0.00 Z"/>
</svg>
